<?xml version="1.0" encoding="UTF-8"?>
<svg id="Layer_1" xmlns="http://www.w3.org/2000/svg" version="1.1" viewBox="0 0 841.89 595.28">
  <!-- Generator: Adobe Illustrator 30.0.0, SVG Export Plug-In . SVG Version: 2.1.1 Build 123)  -->
  <defs>
    <style>
      .st0 {
        fill: #fff;
      }
    </style>
  </defs>
  <path class="st0" d="M237.5,320.1c-.2-2.14,1.98-3.54,3.48-4.59,7.57-5.31,19.31-8.12,26.93-13.95-9.81-4.02-20.26-1.66-30.42-1.43,2.45-6.67,5.97-14.96,13.86-16.08,5.23-.74,28.9-.29,31.32,4.68,2.04,4.19-9.49,18.39-12.92,21.33-7.5,6.44-22.81,7.72-32.27,10.03Z"/>
  <path class="st0" d="M158.11,277.32c.62.32.62.63,0,.95v-.95Z"/>
  <g>
    <path class="st0" d="M324.96,482.68c.59-.59-9.09-9.42-11.72-9.27-1.85.11-11.46,4.24-5.92-3.13,8.01-10.64,18.1,3.22,24.35,8.07,1.82,1.41,6.7,2.34,6.48,4.63-.38,3.98-3.04,4.86-6.53,4.93,1.85,2.37,10.19,4.51,12.23,3.2.29-.19,1.71-5.16,2.47-6.56,12.83-23.45,27.56-3.93,14.77,11.44,3.59-.56,10.26,1.03,13.32-.46,2.83-1.38,6.22-12.36,12.3-14.32,16.25-5.23,17.42,24,5.2,25.24-5.17.52-11.94-5.43-13.23-5.43-.53,0-2.6,2.17-4.8,2.53-3.07.51-6.76-.25-9.93.05,2.72,9.85-5.64,15.84-14.58,10.29-7.2-4.47-6.6-14.33-7.34-15-.79-.73-11.95.45-14.73-6.67-.46-1.17-.31-3.69-.44-3.84-.48-.51-10.53,2.76-13.73,2.89-4.54.18-17.13-2.96-18.02-2.74-1.46.35-5.12,8.63-13.41,9.37-4.47.4-13.8-1.35-12.87-7.11.77-4.75,4.7-.94,7.22-.56,4.54.69,9.36.04,12.78-3.28-5.64-2.67-12.51-2.8-13.34-10.44-1.87-17.23,20.39-22.66,22.78-7.56.52,3.27-1.37,11.19.05,12.3,4.97,3.89,20.6,3.35,26.64,1.41ZM291.68,478.89c2.76-23.83-20.84-4.25-3.85-.43,1.29.29,2.52.59,3.85.43ZM359.1,480.88c-4.09-2.74-9.93,8.72-9.42,12.26,7.85.51,12.87-4.5,9.42-12.26ZM388.41,487.59c-2.64.52-6.25,5.06-5.37,7.78.46,1.41,7.47,4.8,8.83,4.38,3.48-1.06,3.53-13.55-3.46-12.16ZM348.73,499.81c-1.86,4.5,7.23,12.59,10.05,8.6,2.34-3.32-3.14-6.43-2.89-9.53l-7.16.93Z"/>
    <path class="st0" d="M634.92,442.75c-.17.18-.35,2.99-1.48,4.73-4.37,6.78-16.25,11.05-23.24,5.74-2.64,8.37-15.91,19.25-24.51,19.74-2.38.14-5.68-1.88-5.92-1.68-.13.11-.36,2.18-1.09,3.19-2.43,3.36-6.1,5.56-10.34,5.38,7.55,16.75-24.31,29.29-33.9,19.64-3.58-3.6-7.89-19.47-4.19-22.09,5.98-4.24,4.6,7.42,5.23,10.12,2.81,12.07,21.8,6.74,26.27.47,5.38-7.54-8.59-2.55-10.38-5.43-.5-.81-.33-5.71.28-6.58.87-1.25,18.97-1.46,22.33-7.22,2.1-3.6-4.48-10.7-2.66-13.51.13-.21,4.18-1.91,4.66-1.62,2.22,1.32,3.26,10.98,7.22,11.74,3.36.64,11.84-4.65,14.63-6.9,1.11-.89,9.62-9.03,8.54-9.99-3.89.21-12.66-1.03-15.29,2.32-2.06,2.64.66,4.37-6.58,3.38-.75-5.2,1.86-10.68,6.93-12.57,5.95-2.22,10.92.41,16.31.24,6.09-.2,14.16-5.92,8.14,6.62,1.87,1.31,11.42-3.69,12.2-6.38,1.61-5.58-9.51-13.34-1.22-16.39,2.09-.77,5.79,9.75,8.73,10.27,5.52.22,11.9-2.42,8.68-8.74-2.68-5.27-17.66-19.75-18.46-23.34-.47-2.12,2.52-4.41,3.86-5.76,5.18,7.04,22.97,24.67,23.26,32.87.19,5.49-7.78,12.19-12.92,12.7-2.27.23-4.92-1.11-5.1-.92Z"/>
    <path class="st0" d="M511.96,497.6c-2.46,2.69-7.05,2.53-10.43,1.99-1.32-.21-2.73-1.76-3.95-1.76-.43,0-2.15,4.08-6.78,4.76-5.87.86-9.47-3.11-9.9-2.79-.13.09-.06,1.7-1.54,2.73-3.27,2.27-8.21,2.62-12.05,1.81-1.64-.35-4.07-2.45-4.98-2.38-.79.06-2.64,2.81-4.94,3.34s-10.37-.2-10.74.19c-.17.18.13,3.64-.21,5.02-3.31,13.21-30.76,15.15-32.97-1.76-.34-2.63,1.38-16.47,2.8-17.49.8-.58,4.27,1.21,5.67.94-3.75,11.54-4.21,23.58,11.66,20.68,14-2.56,2.01-19.68,4.95-24.5.73-1.19,4.01-2.47,5.31-1.5,2.54,1.89-.12,12.94,8.72,11.79,10.17-1.32,3.25-13.47,4.57-15,.22-.25,6.22-1.26,6.58-.95,2.13,7.25-1.94,15.75,8.99,14.18,8.39-1.2,2.98-10.51,4.46-12.22.14-.17,3.75-1.01,4.26-1,4.39.03.07,15.72,9.9,10.89,5.61-2.76-4.48-13.34,5.25-13.82,2.03-.1,1.09.25,1.51,1.36,2.4,6.27-.44,11.72,9.4,10.09,1.91-7.83-9.42-15.73,1.44-18.91,4.17,5.27,7.94,18.92,3.01,24.31Z"/>
    <path class="st0" d="M360,323.42c-2.84,2.04-17.56-13.22-21.33-13.26-3.2-.03-9.9,14.42-12.42,17.19-3.08-.09-3.36-2.92-5.18-4.29-2.49-1.88-17.67-10.91-17.8-12.4l11.75-18.49,23.17,14.19,10.5-17.11c1.13-.76,19.81,12.87,22.67,14.71l-11.36,19.45Z"/>
    <path class="st0" d="M401.02,250.8l11.09-16.15c1.17-.08,18.72,11.12,19.93,12.4.99,1.06,1.7,1.42,1.27,3.12-.35,1.38-10.67,17.56-11.73,17.64-3.62-1.53-17.44-13.17-20.01-13.17-3.15,0-10.62,16.5-13.13,16.11s-17.75-12.91-21.49-14.78c-.41-1.39,10.39-18.04,11.97-18.3,3.35,1.13,20.64,14.14,22.1,13.13Z"/>
    <path class="st0" d="M592,271.76c1.17,1.99-8.46,16.25-10.44,18.29-4.19,4.3-8.74-2.96-12.33-5.51-1.63-1.16-10.36-6.24-10.46-6.86-.36-2.27,10.62-19.03,12.08-19.29,2.67,2.29,20.36,12.03,21.15,13.38Z"/>
    <path class="st0" d="M424.18,281.24c1.17,1.99-8.46,16.25-10.44,18.29-4.19,4.3-8.74-2.96-12.33-5.51-1.63-1.16-10.36-6.24-10.46-6.86-.36-2.27,10.62-19.03,12.08-19.29,2.67,2.29,20.36,12.03,21.15,13.38Z"/>
    <path class="st0" d="M243.8,440.98c7.68-2.52,11.95,10.79,11.69,16.44-.2,4.41-4.33,11.13-9.01,11.89-15.3,2.49-21.66-12.75-9.47-21.82,1.6-1.19,4.14-1.3,5.32-2.36s-.91-3.38,1.48-4.16ZM242.94,450.54c-5.32,1.14-7.84,9.32-2.57,11.68,9.86,4.41,11.86-13.67,2.57-11.68Z"/>
    <path class="st0" d="M271.72,456.06c1.05,11.35-4.06,30.94-17.57,32.36-6.12.64-14.61-2.18-10.89-9.5,10.82,3.4,17.78,2.65,20.44-9.49,1.43-6.54-1.5-14.83,8.02-13.37Z"/>
    <path class="st0" d="M251.65,428.6c.5.36.78,4.17,2.58,4.59,1.9.44,5.16-5,6.82,1.71.87,3.51-1.72,6.4-4.89,5.82-1.82-.33-2.56-4.17-4-4.48-.94-.2-2.47.9-3.71.81-2.57-.21-4.66-4.1-4.22-6.57,1.84-.43,5.85-3,7.42-1.88Z"/>
    <path class="st0" d="M593.04,479.89c.5.68-.96,5.59-1.83,6.17-2.26,1.53-6.16-.93-6.68-.53-1.76,1.33,2.01,8.22-8.49,2.77.89-10.43,4.41-4.51,7.88-5.68,1.81-.61,1.44-4.27,3.04-4.64.31-.07,5.89,1.64,6.08,1.9Z"/>
    <path class="st0" d="M565.51,504.57c-.7,11.18-7.14,4.14-9.42,5.77-1.9,1.36,1.38,6.34-8.61,1.78.88-10.32,6-4.34,7.95-4.77s1.98-4.6,3.03-4.76c1.96-.31,4.71,2.4,7.05,1.98Z"/>
    <path class="st0" d="M622.54,422.78c-.34.36-6.18-.23-7.6.02v-7.62c2.09.25,6.9-.8,8.16.93.2.27-.33,6.43-.56,6.67Z"/>
    <path class="st0" d="M428.22,476.07c4.57,2.61,8.87,4.5,2.79,8.57-2.88,1.93-6.99-2.15-7-3.37,0-.36,3.48-5.05,4.21-5.2Z"/>
    <path class="st0" d="M316.26,498.03c.25.15,2.79,4.82,2.78,5.11-.07,1.11-4.15,4.62-5.88,4.34-.34-.06-3.81-4.89-3.32-6.07.43-1.68,4.86-4.29,6.43-3.38Z"/>
    <path class="st0" d="M463.65,471.42c.92,1.57-1.69,5.99-3.38,6.43-2.44.62-3.63-2.74-5.98-2.8-.62-.85,3.38-6.39,4.24-6.45.29-.02,4.97,2.58,5.11,2.83Z"/>
    <path class="st0" d="M505.35,304.63c-.93.91-3.14,1.8-4.05.3-.99-1.62-2.44-14.57-3.57-18.3-2.54-8.39-6.77-17.41-15.93-8.86-2.28,2.13-3.94,5.8-6.14,8.13-5.95,6.32-13.95,14.99-20.44,20.44-3.35,2.82-8.12,4.79-10.83,7.07-2.98,2.51,5.8,4.01,7,4.34,17.89,4.96,41.95,8.7,60.51,10.8,15.66,1.77,31.27,1.92,46.94,2.98-2.61,3.86-4.68,15.12-7.13,18.06-1.73,2.07-5.2.1-7.13,1.42,7.94,11.26,30.3,9.64,41.52,4.46,10.8-4.99,9.72-7.52,4.6-17.3-1.49-2.85-8.57-11.59-8.79-12.96-.29-1.79,3.91-15.91,5.01-18.4.51-1.16-.06-2.32,1.85-1.89,19.98,19.18,22.03,58.3-5.83,71.16-13.69,6.32-37.14,7.76-45.44-7.53-3.61-6.66-1.49-11.01-3.33-17.59-5.85-1.56-12.1.25-17.66.53-4.06.2-8.18-.31-12.23.13-40.46,4.46-96.85,51.47-136.56,33.64-2.31-1.04-3.28-3.21-5.69-3.33,8.57,20.96,30.05,32.37,50.93,37.95,53.41,14.28,121.58-1.82,169.66-27,22.9-11.99,47.6-35.03,75.31-25.91,8.14,2.68,19.42,9.3,11.69,18.62-32.6-17.87-62.02,10.27-89.23,25.02-51.53,27.94-139.62,47.57-193.66,18.39-29.41-15.88-30.79-35.02-36.15-64.65-.24-1.33.91-2.8-1.38-2.39-7.26,8.73-12.44,18.11-22.43,24.16-7.22,4.37-16.25,6.2-24.65,6.25.69,5.97-1.33,26.76-8.26,28.37-1.75.41-8.44-1.64-10.45-2.52-12.7-5.55-18.64-22.26-17.41-35.36-21.81.73-39.19,14.53-53.73,29.46-18.76,19.27-49.65,69.49-81.94,48.69-25.87-16.67-15.8-56.22-4.26-78.79,1.8-3.52,10.12-14.89,10.48-17.16.2-1.28-4.36-12.25-4.64-16.86-1.16-19.35,9.47-44.56,19.84-60.05,1.01-1.51,3.66-7.65,3.98-7.96,1.4-1.38,2.16.41,1.71,2.19-2.86,11.22-9.93,23.17-12.67,34.88-1.78,7.61-5.46,31.75,7.63,30.51,6.1-.58,6.4-10.22,9.51-11.48,1.93-.78,1.38,1.29,1.44,2.38.42,7.57-5.65,24.37-12.42,28.48-2.13,1.29-4.51,1.13-6.12,2.44-6.43,5.2-17.76,36.38-18.55,45.15-3.01,33.56,19.86,33.15,41.32,16.6,30.47-23.5,53-68.05,95.22-74.02,2.58-.36,6.32.44,8.31-.24,1.79-.61,1.79-3.96,2.99-5.56,4.05-5.38,5.74,1.96,8.5,4.77,13.88,14.13,39.87,14.64,54.22.91,5.86-5.61,13.35-21.4,18.97-24.76,7.34-4.39,4.31,4.13,4.29,7.14-.08,12.21,4.24,19.81,15.94,24.07,26.49,9.66,61.29-8.1,85.57-18.59,1.73-.75,8.21-1.49,3.69-3.16-13.02-4.81-41.05-9.45-55.36-11.2-6.25-.76-13.9-.28-19.87-1.07-1.11-.15-1.9.39-1.38-1.39,1.25-4.33,7.84-12.98,9.53-18.05,21.57-4.86,43.22-10.53,60.35-25.22,8.78-7.53,25.19-30.97,34.2-33.37,14.61-3.9,18.38,26.1,17.57,35.71-.27,3.23-2.99,15.38-4.99,17.34ZM286.93,396.16c1.43-6.3-4.52-9.69-8.54-13.31-1.71,2.82,6.71,15.41,8.54,13.31Z"/>
    <path class="st0" d="M178.55,465.58c1.14-1.05,19.45,11,22.17,12.52,137.84,76.86,372.09,96.76,478.84-41.55,88.27-114.36-11.82-262.35-150.92-222.23-20.58,5.94-38.54,16.46-57.25,26.41,51.28-49.65,136.45-61.38,196.14-19.32,68.51,48.28,69.63,141.65,26.71,207.96-98.37,151.98-363.64,164.19-497.13,55.2-5.17-4.22-12.49-10.59-16.67-15.66-.88-1.07-2.31-1.53-1.9-3.32Z"/>
  </g>
  <g>
    <path class="st0" d="M416.14,205.82c3.18-3.83-3.07-16.14-5.57-20.06-1.84-2.87-6.78-6.04-7.43-10.64-.5-3.56,4.48-25.18,7.17-26.05,2.89-.92,9.55,10.03,11.03,12.65,15.28,27.03,7.81,74.43-29.96,73.78-27.24-.47-33.25-27.05-34.84-48.91-.33-4.58.55-9.89,0-14.27-.18-1.39-.72-2.95-1.9-1.4-.52,36.13-21.04,72.51-55.6,85.59-6.5,2.46-54.12,14.42-56.59,12.33-.33-1.93,1.23-2.71,2.53-3.64,8.37-6,22.8-11.6,32.33-17.11,23.53-13.59,54.81-32.84,65.43-59.12,12.11-29.99,7.25-89.01,1.14-120.91-.29-1.5-3.31-18.49-5.39-16.94-3.9,9.36-7.05,19.16-6.67,29.47-2.79.47-1.54-.67-2.01-2.21-6.43-20.78,7.16-40.57,18.65-56.71,11.3,31.75,14.77,66.78,17.58,100.3,1.65,19.69.37,66.09,11,81.22,5.87,8.36,15.77,9.77,25.36,8.37,2.79-.41,12.13-3.78,13.75-5.73Z"/>
    <path class="st0" d="M266.2,94.85c-4.04.75-8.02-1.1-11.85-.98-1.09.03-3.19-.43-2.39,1.45.57,1.35,10.12,12.03,11.88,13.79,15.89,15.94,36.73,27.46,50.31,45.72,12.3,16.54,15.6,33.03,10.05,53.16-1.59.3-1.99-.35-2.62-1.65-2.33-4.83-3.27-12.04-6.1-17.67-11.92-23.69-41.71-40.87-60.2-59.6-8.84-8.95-16.3-23.42-24.59-31.03-1.64-1.5-6.9-3.93-7.12-4.29-.97-1.54.85-27.41,2.24-27.44l38.42,25.28,1.97,3.25Z"/>
  </g>
</svg>